<svg width="428" height="428" viewBox="0 0 428 428" fill="none" xmlns="http://www.w3.org/2000/svg">
<circle cx="214" cy="214" r="206" stroke="#00E0FF" stroke-width="16"/>
<path d="M198.446 141.545V287H170.747L109.384 198.08H108.389V287H76.0739V141.545H104.199L165.065 230.324H166.273V141.545H198.446ZM318.847 188.705C317.948 185.437 316.622 182.549 314.87 180.04C313.165 177.483 311.082 175.305 308.62 173.506C306.158 171.706 303.317 170.357 300.097 169.457C296.925 168.51 293.445 168.037 289.657 168.037C282.365 168.037 275.997 169.836 270.552 173.435C265.107 177.033 260.869 182.265 257.839 189.131C254.856 195.949 253.364 204.259 253.364 214.06C253.364 223.955 254.832 232.36 257.768 239.273C260.703 246.186 264.894 251.465 270.339 255.111C275.831 258.709 282.342 260.509 289.87 260.509C296.641 260.509 302.417 259.348 307.2 257.028C311.982 254.661 315.628 251.323 318.137 247.014C320.647 242.658 321.901 237.568 321.901 231.744L328.293 232.597H291.575V208.591H353.009V227.199C353.009 240.078 350.287 251.134 344.842 260.366C339.444 269.552 331.963 276.631 322.398 281.602C312.881 286.527 301.968 288.989 289.657 288.989C275.926 288.989 263.876 285.982 253.506 279.969C243.137 273.908 235.04 265.314 229.217 254.188C223.44 243.061 220.552 229.827 220.552 214.486C220.552 202.601 222.28 192.043 225.737 182.81C229.24 173.529 234.117 165.67 240.367 159.23C246.617 152.791 253.885 147.914 262.171 144.599C270.457 141.238 279.43 139.557 289.089 139.557C297.422 139.557 305.164 140.764 312.313 143.179C319.463 145.546 325.808 148.932 331.347 153.335C336.887 157.691 341.409 162.876 344.913 168.889C348.416 174.902 350.642 181.508 351.589 188.705H318.847Z" fill="#00E0FF"/>
</svg>
